<svg width="32" height="36" viewBox="0 0 32 36" fill="none" xmlns="http://www.w3.org/2000/svg">
<path d="M4 28C4 28.88 4.39 29.67 5 30.22V31.5C5 32.33 5.67 33 6.5 33C7.33 33 8 32.33 8 31.5V31H16V31.5C16 32.32 16.67 33 17.5 33C18.32 33 19 32.33 19 31.5V30.22C19.61 29.67 20 28.88 20 28V18C20 14.5 16.42 14 12 14C7.58 14 4 14.5 4 18V28ZM7.5 29C6.67 29 6 28.33 6 27.5C6 26.67 6.67 26 7.5 26C8.33 26 9 26.67 9 27.5C9 28.33 8.33 29 7.5 29ZM16.5 29C15.67 29 15 28.33 15 27.5C15 26.67 15.67 26 16.5 26C17.33 26 18 26.67 18 27.5C18 28.33 17.33 29 16.5 29ZM18 23H6V18H18V23Z" fill="#3B79F0"/>
<path d="M30 11C30 18 21 24 21 24C21 24 12 18 12 11C12 8.61305 12.9482 6.32387 14.636 4.63604C16.3239 2.94821 18.6131 2 21 2C23.3869 2 25.6761 2.94821 27.364 4.63604C29.0518 6.32387 30 8.61305 30 11Z" fill="#3B79F0" stroke="white" stroke-width="3" stroke-linecap="round" stroke-linejoin="round"/>
<path d="M21 14C22.6569 14 24 12.6569 24 11C24 9.34315 22.6569 8 21 8C19.3431 8 18 9.34315 18 11C18 12.6569 19.3431 14 21 14Z" fill="white"/>
</svg>
